<?xml version="1.0" encoding="UTF-8"?>
<svg width="800" height="800" viewBox="0 0 800 800" xmlns="http://www.w3.org/2000/svg">
    <!-- Background Circle -->
    <circle cx="400" cy="400" r="350" fill="none" stroke="rgba(110, 0, 255, 0.2)" stroke-width="2"/>
    
    <!-- Metatron Cube -->
    <g transform="translate(400, 400) scale(0.8)">
        <!-- Outer Circle -->
        <circle cx="0" cy="0" r="250" fill="none" stroke="rgba(110, 0, 255, 0.3)" stroke-width="2"/>
        
        <!-- Inner Circles -->
        <circle cx="0" cy="0" r="200" fill="none" stroke="rgba(0, 184, 255, 0.3)" stroke-width="2"/>
        <circle cx="0" cy="0" r="150" fill="none" stroke="rgba(255, 0, 230, 0.3)" stroke-width="2"/>
        
        <!-- Cube Lines -->
        <line x1="-150" y1="-150" x2="150" y2="150" stroke="rgba(110, 0, 255, 0.5)" stroke-width="2"/>
        <line x1="150" y1="-150" x2="-150" y2="150" stroke="rgba(110, 0, 255, 0.5)" stroke-width="2"/>
        <line x1="-150" y1="0" x2="150" y2="0" stroke="rgba(0, 184, 255, 0.5)" stroke-width="2"/>
        <line x1="0" y1="-150" x2="0" y2="150" stroke="rgba(0, 184, 255, 0.5)" stroke-width="2"/>
        
        <!-- Energy Points -->
        <circle cx="0" cy="0" r="10" fill="rgba(110, 0, 255, 0.8)"/>
        <circle cx="-150" cy="-150" r="8" fill="rgba(0, 184, 255, 0.8)"/>
        <circle cx="150" cy="-150" r="8" fill="rgba(0, 184, 255, 0.8)"/>
        <circle cx="-150" cy="150" r="8" fill="rgba(0, 184, 255, 0.8)"/>
        <circle cx="150" cy="150" r="8" fill="rgba(0, 184, 255, 0.8)"/>
        <circle cx="-150" cy="0" r="8" fill="rgba(255, 0, 230, 0.8)"/>
        <circle cx="150" cy="0" r="8" fill="rgba(255, 0, 230, 0.8)"/>
        <circle cx="0" cy="-150" r="8" fill="rgba(255, 0, 230, 0.8)"/>
        <circle cx="0" cy="150" r="8" fill="rgba(255, 0, 230, 0.8)"/>
    </g>
    
    <!-- Glow Effect -->
    <filter id="glow">
        <feGaussianBlur stdDeviation="5" result="coloredBlur"/>
        <feMerge>
            <feMergeNode in="coloredBlur"/>
            <feMergeNode in="SourceGraphic"/>
        </feMerge>
    </filter>
</svg> 