<?xml version="1.0" encoding="UTF-8"?>
<svg width="800" height="800" viewBox="0 0 800 800" xmlns="http://www.w3.org/2000/svg">
    <!-- Background Circle -->
    <circle cx="400" cy="400" r="350" fill="none" stroke="rgba(110, 0, 255, 0.2)" stroke-width="2"/>
    
    <!-- Energy Waves -->
    <g transform="translate(400, 400)">
        <!-- Outer Wave -->
        <path d="M0,-200 A200,200 0 0,1 200,0 A200,200 0 0,1 0,200 A200,200 0 0,1 -200,0 A200,200 0 0,1 0,-200" 
              fill="none" stroke="rgba(0, 184, 255, 0.3)" stroke-width="2"/>
        
        <!-- Middle Wave -->
        <path d="M0,-150 A150,150 0 0,1 150,0 A150,150 0 0,1 0,150 A150,150 0 0,1 -150,0 A150,150 0 0,1 0,-150" 
              fill="none" stroke="rgba(110, 0, 255, 0.3)" stroke-width="2"/>
        
        <!-- Inner Wave -->
        <path d="M0,-100 A100,100 0 0,1 100,0 A100,100 0 0,1 0,100 A100,100 0 0,1 -100,0 A100,100 0 0,1 0,-100" 
              fill="none" stroke="rgba(255, 0, 230, 0.3)" stroke-width="2"/>
    </g>
    
    <!-- Lotus Flower -->
    <g transform="translate(400, 400)">
        <!-- Petals -->
        <path d="M0,-80 L20,-60 L0,-40 L-20,-60 Z" fill="rgba(110, 0, 255, 0.6)" transform="rotate(0)"/>
        <path d="M0,-80 L20,-60 L0,-40 L-20,-60 Z" fill="rgba(0, 184, 255, 0.6)" transform="rotate(45)"/>
        <path d="M0,-80 L20,-60 L0,-40 L-20,-60 Z" fill="rgba(110, 0, 255, 0.6)" transform="rotate(90)"/>
        <path d="M0,-80 L20,-60 L0,-40 L-20,-60 Z" fill="rgba(0, 184, 255, 0.6)" transform="rotate(135)"/>
        <path d="M0,-80 L20,-60 L0,-40 L-20,-60 Z" fill="rgba(110, 0, 255, 0.6)" transform="rotate(180)"/>
        <path d="M0,-80 L20,-60 L0,-40 L-20,-60 Z" fill="rgba(0, 184, 255, 0.6)" transform="rotate(225)"/>
        <path d="M0,-80 L20,-60 L0,-40 L-20,-60 Z" fill="rgba(110, 0, 255, 0.6)" transform="rotate(270)"/>
        <path d="M0,-80 L20,-60 L0,-40 L-20,-60 Z" fill="rgba(0, 184, 255, 0.6)" transform="rotate(315)"/>
        
        <!-- Center -->
        <circle cx="0" cy="0" r="20" fill="rgba(255, 0, 230, 0.8)"/>
    </g>
    
    <!-- Energy Points -->
    <g transform="translate(400, 400)">
        <circle cx="0" cy="-200" r="5" fill="rgba(110, 0, 255, 0.8)"/>
        <circle cx="141" cy="-141" r="5" fill="rgba(0, 184, 255, 0.8)"/>
        <circle cx="200" cy="0" r="5" fill="rgba(110, 0, 255, 0.8)"/>
        <circle cx="141" cy="141" r="5" fill="rgba(0, 184, 255, 0.8)"/>
        <circle cx="0" cy="200" r="5" fill="rgba(110, 0, 255, 0.8)"/>
        <circle cx="-141" cy="141" r="5" fill="rgba(0, 184, 255, 0.8)"/>
        <circle cx="-200" cy="0" r="5" fill="rgba(110, 0, 255, 0.8)"/>
        <circle cx="-141" cy="-141" r="5" fill="rgba(0, 184, 255, 0.8)"/>
    </g>
</svg> 